<svg width="65" height="87" viewBox="0 0 65 87" fill="none" xmlns="http://www.w3.org/2000/svg">
<path fill-rule="evenodd" clip-rule="evenodd" d="M36.4159 84.7164L36.4429 84.6894L36.5078 84.6137L36.751 84.3435L37.6481 83.3383C42.139 78.2237 46.3742 72.8901 50.3381 67.357C53.8078 62.4929 57.364 56.9802 60.0717 51.5054C62.7199 46.1549 64.8547 40.2694 64.8547 34.827C64.8547 15.5165 50.7056 0 32.4273 0C14.1491 0 0 15.5111 0 34.827C0 40.2694 2.1348 46.1549 4.78303 51.5054C7.49072 56.9802 11.0523 62.4929 14.5112 67.357C18.74 73.2544 23.2771 78.9245 28.1037 84.3435L28.3469 84.6137L28.4118 84.6894L28.4388 84.7164C28.9452 85.2702 29.5613 85.7125 30.248 86.0151C30.9347 86.3177 31.6769 86.474 32.4273 86.474C33.1778 86.474 33.92 86.3177 34.6067 86.0151C35.2934 85.7125 35.9095 85.2702 36.4159 84.7164ZM32.4273 21.6182C29.5606 21.6182 26.8113 22.757 24.7841 24.7841C22.757 26.8112 21.6182 29.5606 21.6182 32.4273C21.6182 35.2941 22.757 38.0434 24.7841 40.0705C26.8113 42.0976 29.5606 43.2365 32.4273 43.2365C35.2941 43.2365 38.0434 42.0976 40.0705 40.0705C42.0976 38.0434 43.2365 35.2941 43.2365 32.4273C43.2365 29.5606 42.0976 26.8112 40.0705 24.7841C38.0434 22.757 35.2941 21.6182 32.4273 21.6182Z" fill="#E9482B"/>
<path fill-rule="evenodd" clip-rule="evenodd" d="M32.4273 21.6182C29.5606 21.6182 26.8113 22.757 24.7841 24.7841C22.757 26.8112 21.6182 29.5605 21.6182 32.4273C21.6182 35.294 22.757 38.0434 24.7841 40.0705C26.8113 42.0976 29.5606 43.2364 32.4273 43.2364C35.2941 43.2364 38.0434 42.0976 40.0705 40.0705C42.0976 38.0434 43.2365 35.294 43.2365 32.4273C43.2365 29.5605 42.0976 26.8112 40.0705 24.7841C38.0434 22.757 35.2941 21.6182 32.4273 21.6182Z" fill="#1E365C"/>
</svg>
